HIERARCHY
ROOT Hips
{
  OFFSET 5.84602e-005 68.8428 3.50346
  CHANNELS 6 Xposition Yposition Zposition Zrotation Xrotation Yrotation
  JOINT Spine
  {
    OFFSET 0 8.597 -4.6522
    CHANNELS 3 Zrotation Xrotation Yrotation
    JOINT Spine1
    {
      OFFSET 0 7.8454 0.4098
      CHANNELS 3 Zrotation Xrotation Yrotation
      JOINT Spine2
      {
        OFFSET 0 9.7078 -2.1609
        CHANNELS 3 Zrotation Xrotation Yrotation
        JOINT Neck
        {
          OFFSET 0 21.8761 -0.4549
          CHANNELS 3 Zrotation Xrotation Yrotation
          JOINT Head
          {
            OFFSET 0 12.3537 3.3602
            CHANNELS 3 Zrotation Xrotation Yrotation
            End Site
            {
              OFFSET 0.0001 18.9506 0.5657
            }
          }
        }
        JOINT LeftShoulder
        {
          OFFSET 2.2086 21.1115 7.2329
          CHANNELS 3 Zrotation Xrotation Yrotation
          JOINT LeftArm
          {
            OFFSET 13.1193 3.0282 -4.8998
            CHANNELS 3 Zrotation Xrotation Yrotation
            JOINT LeftForeArm
            {
              OFFSET 27.4081 -0.0973053 -0.2375
              CHANNELS 3 Zrotation Xrotation Yrotation
              JOINT LeftHand
              {
                OFFSET 22.8641 0.0662994 -0.1369
                CHANNELS 3 Zrotation Xrotation Yrotation
                JOINT LeftHandIndex1
                {
                  OFFSET 8.8614 0.775009 2.4612
                  CHANNELS 3 Zrotation Xrotation Yrotation
                  JOINT LeftHandIndex2
                  {
                    OFFSET 3.3146 -0.808304 0.5841
                    CHANNELS 3 Zrotation Xrotation Yrotation
                    JOINT LeftHandIndex3
                    {
                      OFFSET 2.2628 -0.552002 0.3989
                      CHANNELS 3 Zrotation Xrotation Yrotation
                      End Site
                      {
                        OFFSET 1.6102 -0.4807 0.2612
                      }
                    }
                  }
                }
                JOINT LeftHandMiddle1
                {
                  OFFSET 8.9937 0.895004 0.2143
                  CHANNELS 3 Zrotation Xrotation Yrotation
                  JOINT LeftHandMiddle2
                  {
                    OFFSET 4.0984 0.0113983 -0.0242
                    CHANNELS 3 Zrotation Xrotation Yrotation
                    JOINT LeftHandMiddle3
                    {
                      OFFSET 2.2716 0.00689697 -0.0138001
                      CHANNELS 3 Zrotation Xrotation Yrotation
                      End Site
                      {
                        OFFSET 2.0404 -0.1441 0.0027
                      }
                    }
                  }
                }
                JOINT LeftHandRing1
                {
                  OFFSET 8.5234 0.597198 -2.0164
                  CHANNELS 3 Zrotation Xrotation Yrotation
                  JOINT LeftHandRing2
                  {
                    OFFSET 3.7188 -0.188293 -0.2328
                    CHANNELS 3 Zrotation Xrotation Yrotation
                    JOINT LeftHandRing3
                    {
                      OFFSET 2.1191 -0.106598 -0.1332
                      CHANNELS 3 Zrotation Xrotation Yrotation
                      End Site
                      {
                        OFFSET 1.8737 -0.2304 -0.0886
                      }
                    }
                  }
                }
                JOINT LeftHandPinky1
                {
                  OFFSET 7.9094 -0.601089 -3.4825
                  CHANNELS 3 Zrotation Xrotation Yrotation
                  JOINT LeftHandPinky2
                  {
                    OFFSET 2.2874 -0.477005 -0.6314
                    CHANNELS 3 Zrotation Xrotation Yrotation
                    JOINT LeftHandPinky3
                    {
                      OFFSET 1.6774 -0.349396 -0.4633
                      CHANNELS 3 Zrotation Xrotation Yrotation
                      End Site
                      {
                        OFFSET 1.4888 -0.4091 -0.3416
                      }
                    }
                  }
                }
                JOINT LeftHandThumb1
                {
                  OFFSET 1.833 -1.3875 1.3896
                  CHANNELS 3 Zrotation Xrotation Yrotation
                  JOINT LeftHandThumb2
                  {
                    OFFSET 3.4129 -1.121 2.5732
                    CHANNELS 3 Zrotation Xrotation Yrotation
                    JOINT LeftHandThumb3
                    {
                      OFFSET 2.2474 -0.804199 1.6192
                      CHANNELS 3 Zrotation Xrotation Yrotation
                      End Site
                      {
                        OFFSET 1.6527 -0.5689 1.1317
                      }
                    }
                  }
                }
              }
            }
          }
        }
        JOINT RightShoulder
        {
          OFFSET -2.2086 21.1115 7.2329
          CHANNELS 3 Zrotation Xrotation Yrotation
          JOINT RightArm
          {
            OFFSET -13.1216 3.0287 -4.9007
            CHANNELS 3 Zrotation Xrotation Yrotation
            JOINT RightForeArm
            {
              OFFSET -27.4081 -0.0973053 -0.2375
              CHANNELS 3 Zrotation Xrotation Yrotation
              JOINT RightHand
              {
                OFFSET -22.8641 0.0664063 -0.1369
                CHANNELS 3 Zrotation Xrotation Yrotation
                JOINT RightHandIndex1
                {
                  OFFSET -8.8614 0.774994 2.4612
                  CHANNELS 3 Zrotation Xrotation Yrotation
                  JOINT RightHandIndex2
                  {
                    OFFSET -3.3146 -0.808304 0.5841
                    CHANNELS 3 Zrotation Xrotation Yrotation
                    JOINT RightHandIndex3
                    {
                      OFFSET -2.2628 -0.552002 0.3989
                      CHANNELS 3 Zrotation Xrotation Yrotation
                      End Site
                      {
                        OFFSET -1.6102 -0.4807 0.2612
                      }
                    }
                  }
                }
                JOINT RightHandMiddle1
                {
                  OFFSET -8.9937 0.894989 0.2143
                  CHANNELS 3 Zrotation Xrotation Yrotation
                  JOINT RightHandMiddle2
                  {
                    OFFSET -4.0984 0.0113983 -0.0242
                    CHANNELS 3 Zrotation Xrotation Yrotation
                    JOINT RightHandMiddle3
                    {
                      OFFSET -2.2716 0.00691223 -0.0138001
                      CHANNELS 3 Zrotation Xrotation Yrotation
                      End Site
                      {
                        OFFSET -2.0404 -0.1441 0.0027
                      }
                    }
                  }
                }
                JOINT RightHandRing1
                {
                  OFFSET -8.5234 0.597198 -2.0164
                  CHANNELS 3 Zrotation Xrotation Yrotation
                  JOINT RightHandRing2
                  {
                    OFFSET -3.7188 -0.188309 -0.2328
                    CHANNELS 3 Zrotation Xrotation Yrotation
                    JOINT RightHandRing3
                    {
                      OFFSET -2.1191 -0.106598 -0.1332
                      CHANNELS 3 Zrotation Xrotation Yrotation
                      End Site
                      {
                        OFFSET -1.8737 -0.2304 -0.0886
                      }
                    }
                  }
                }
                JOINT RightHandPinky1
                {
                  OFFSET -7.9094 -0.601105 -3.4825
                  CHANNELS 3 Zrotation Xrotation Yrotation
                  JOINT RightHandPinky2
                  {
                    OFFSET -2.2874 -0.477005 -0.6314
                    CHANNELS 3 Zrotation Xrotation Yrotation
                    JOINT RightHandPinky3
                    {
                      OFFSET -1.6774 -0.349396 -0.4633
                      CHANNELS 3 Zrotation Xrotation Yrotation
                      End Site
                      {
                        OFFSET -1.4888 -0.4091 -0.3416
                      }
                    }
                  }
                }
                JOINT RightHandThumb1
                {
                  OFFSET -1.833 -1.38751 1.3896
                  CHANNELS 3 Zrotation Xrotation Yrotation
                  JOINT RightHandThumb2
                  {
                    OFFSET -3.41299 -1.12099 2.5732
                    CHANNELS 3 Zrotation Xrotation Yrotation
                    JOINT RightHandThumb3
                    {
                      OFFSET -2.24741 -0.804108 1.6192
                      CHANNELS 3 Zrotation Xrotation Yrotation
                      End Site
                      {
                        OFFSET -1.6527 -0.5689 1.1317
                      }
                    }
                  }
                }
              }
            }
          }
        }
      }
    }
  }
  JOINT RightUpLeg
  {
    OFFSET -9.1966 3.8861 -0.7581
    CHANNELS 3 Zrotation Xrotation Yrotation
    JOINT RightLeg
    {
      OFFSET -0.7359 -41.0265 0
      CHANNELS 3 Zrotation Xrotation Yrotation
      JOINT RightFoot
      {
        OFFSET 0 -40.2855 0
        CHANNELS 3 Zrotation Xrotation Yrotation
        JOINT RightToeBase
        {
          OFFSET 0 -5.6122 11.7359
          CHANNELS 3 Zrotation Xrotation Yrotation
          End Site
          {
            OFFSET 0 0 7.8731
          }
        }
      }
    }
  }
  JOINT LeftUpLeg
  {
    OFFSET 9.1965 3.8864 -0.7581
    CHANNELS 3 Zrotation Xrotation Yrotation
    JOINT LeftLeg
    {
      OFFSET 0.7359 -41.0268 0
      CHANNELS 3 Zrotation Xrotation Yrotation
      JOINT LeftFoot
      {
        OFFSET 0 -40.2855 0
        CHANNELS 3 Zrotation Xrotation Yrotation
        JOINT LeftToeBase
        {
          OFFSET 0 -5.6122 11.7359
          CHANNELS 3 Zrotation Xrotation Yrotation
          End Site
          {
            OFFSET 0 0 7.8731
          }
        }
      }
    }
  }
}
MOTION
Frames:	6
Frame Time:	0.0333333
0.999084 13.2442 2.25812 0 15.2273 -0 -0.334936 12.4189 -0.225718 -0.641885 24.8389 -0.389248 -0.641885 24.8389 -0.389248 -1.08201e-005 0.000597246 2.99879e-006 -4.96962e-017 -3.18055e-015 1.98785e-016 -10.3566 0.666065 -16.2897 -38.4052 -0.369024 -71.9767 1.44435 -17.105 -9.18847 21.9801 6.72383 8.94709 -5.56597e-015 0 -3.18055e-015 -5.71527e-007 3.86815e-007 2.30844e-006 -3.66828e-007 1.34763e-006 9.60811e-007 -5.56597e-015 0 -3.18055e-015 -0.0146257 -9.10191e-005 1.04724e-006 -3.66801e-007 1.3475e-006 9.60983e-007 -5.56597e-015 0 -3.18055e-015 -0.0187316 -0.00117663 6.19267e-005 -3.66784e-007 1.34747e-006 9.61035e-007 -5.56597e-015 0 -3.18055e-015 -0.0122777 -0.00325011 0.000679257 -3.66771e-007 1.34753e-006 9.60964e-007 -5.56597e-015 0 -3.18055e-015 -5.71527e-007 3.86815e-007 2.30844e-006 -3.66828e-007 1.34763e-006 9.60811e-007 10.3788 0.560496 16.4747 28.8321 2.32861 74.9929 -3.61978 -17.0453 5.05096 -22.5977 6.84428 -8.66864 4.89699e-007 1.36266e-006 -8.5584e-007 4.89699e-007 1.36266e-006 -8.5584e-007 4.89699e-007 1.36266e-006 -8.5584e-007 4.89699e-007 1.36266e-006 -8.5584e-007 0.0150079 -8.99464e-005 -5.46794e-006 4.8966e-007 1.36255e-006 -8.56019e-007 4.89699e-007 1.36266e-006 -8.5584e-007 0.0189896 -0.00118803 -6.09371e-005 4.89641e-007 1.36252e-006 -8.56071e-007 4.89699e-007 1.36266e-006 -8.5584e-007 0.0122078 -0.00322864 -0.000672303 4.89636e-007 1.36258e-006 -8.55997e-007 4.89699e-007 1.36266e-006 -8.5584e-007 4.89699e-007 1.36266e-006 -8.5584e-007 4.89699e-007 1.36266e-006 -8.5584e-007 -50.0501 -51.1866 -42.2736 -151.132 40.0458 156.1 12.4029 41.62 -12.7817 -2.71328e-006 3.14916e-006 1.83066e-006 50.0384 -51.2246 42.3997 151.265 40.028 -156.165 -12.2962 41.3293 12.8607 -3.34286e-006 -2.67512e-006 3.31591e-007 
0.999129 13.3835 2.03008 0 16.199 -0 -0.331799 12.1973 -0.229765 -0.634598 24.396 -0.399379 -0.634598 24.396 -0.399379 -9.50876e-006 5.31604e-005 2.92147e-006 4.70471e-007 -9.5921e-006 -8.39969e-008 -10.1867 0.701275 -17.1261 -39.1326 -1.20632 -71.0036 1.48734 -17.3287 -8.92039 22.2168 6.46688 8.4517 -1.78214e-007 6.76818e-007 4.79053e-007 1.78214e-007 -6.76818e-007 -4.79053e-007 -1.78214e-007 6.76818e-007 4.79053e-007 -1.78214e-007 6.76818e-007 4.79053e-007 -0.0146269 -8.95286e-005 -6.35094e-006 -1.78202e-007 6.76757e-007 4.7914e-007 -1.78214e-007 6.76818e-007 4.79053e-007 -0.0187485 -0.00117607 5.88241e-005 -1.78193e-007 6.7674e-007 4.79166e-007 -1.78214e-007 6.76818e-007 4.79053e-007 -0.0122562 -0.0032481 0.000679639 -1.78186e-007 6.7677e-007 4.7913e-007 -1.78214e-007 6.76818e-007 4.79053e-007 1.78214e-007 -6.76818e-007 -4.79053e-007 -1.78214e-007 6.76818e-007 4.79053e-007 10.2113 0.588949 17.323 29.0988 2.35832 74.1498 -3.66173 -17.2651 4.8481 -22.8733 6.59135 -8.15646 6.36111e-015 -1.27222e-014 -3.18055e-015 4.88791e-007 1.3619e-006 -8.58781e-007 1.59028e-015 6.36111e-015 4.77083e-015 6.36111e-015 -1.27222e-014 -3.18055e-015 0.0150062 -8.96035e-005 2.15476e-006 -9.54166e-015 0 -0 6.36111e-015 -1.27222e-014 -3.18055e-015 0.0189355 -0.00118763 -5.75787e-005 0 3.18055e-015 -0 6.36111e-015 -1.27222e-014 -3.18055e-015 0.0122482 -0.00324311 -0.000678125 -0 0 1.59028e-015 6.36111e-015 -1.27222e-014 -3.18055e-015 4.88791e-007 1.3619e-006 -8.58781e-007 1.59028e-015 6.36111e-015 4.77083e-015 -50.0575 -52.2414 -42.566 -151.144 40.033 156.103 13.3666 41.6893 -13.2765 -9.46666e-007 -7.03924e-007 -2.25979e-006 50.0287 -52.2908 42.6856 151.289 40.0171 -156.168 -13.2486 41.3803 13.3559 -6.35102e-007 4.69382e-007 -1.50474e-006 
0.999175 13.5251 1.8017 0 17.1704 -0 -0.328654 11.976 -0.233757 -0.627373 23.9532 -0.409347 -0.627373 23.9532 -0.409347 9.82626e-007 -4.37428e-005 2.4715e-006 1.36629e-007 -9.59458e-006 -3.50005e-007 -10.0163 0.73396 -17.9625 -39.8463 -2.05614 -70.0403 1.5317 -17.5522 -8.65182 22.4512 6.20794 7.95768 1.13956e-005 7.28669e-007 6.4969e-008 7.95139e-016 6.36111e-015 -0 -6.36111e-015 6.36111e-015 -4.77083e-015 1.13956e-005 7.28669e-007 6.4969e-008 -0.0146453 -8.92569e-005 -1.18659e-006 3.97569e-015 -3.18055e-015 -0 1.13956e-005 7.28669e-007 6.4969e-008 -0.0187715 -0.00117513 6.07494e-005 7.95139e-015 0 -0 1.13956e-005 7.28669e-007 6.4969e-008 -0.0122625 -0.00324496 0.000676631 2.38542e-015 -3.18055e-015 -0 1.13956e-005 7.28669e-007 6.4969e-008 7.95139e-016 6.36111e-015 -0 -6.36111e-015 6.36111e-015 -4.77083e-015 10.0434 0.614874 18.1713 29.3658 2.3841 73.3073 -3.70527 -17.4848 4.64487 -23.1464 6.33601 -7.64581 -9.86694e-006 -1.91958e-006 -1.37761e-006 4.87944e-007 1.36115e-006 -8.61616e-007 3.18055e-015 0 1.59028e-015 -9.86694e-006 -1.91958e-006 -1.37761e-006 0.0150202 -9.00943e-005 -2.6814e-007 1.43125e-014 0 3.18055e-015 -9.86694e-006 -1.91958e-006 -1.37761e-006 0.019018 -0.00119218 -6.00742e-005 -7.06225e-031 -6.36111e-015 -6.36111e-015 -9.86694e-006 -1.91958e-006 -1.37761e-006 0.0122879 -0.00324974 -0.000677004 -2.11868e-030 1.90833e-014 6.36111e-015 -9.86694e-006 -1.91958e-006 -1.37761e-006 4.87944e-007 1.36115e-006 -8.61616e-007 3.18055e-015 0 1.59028e-015 -50.0713 -53.2979 -42.8629 -151.158 40.0204 156.107 14.3324 41.7526 -13.7734 -2.71466e-006 3.15156e-006 1.8299e-006 50.0448 -53.3495 42.9911 151.301 40.0052 -156.171 -14.2026 41.4256 13.8525 6.3475e-007 -4.69028e-007 1.50503e-006 
0.999219 13.6688 1.57304 0 18.1414 -0 -0.325522 11.7548 -0.237708 -0.620255 23.5106 -0.419174 -0.620256 23.5106 -0.419174 7.78769e-006 -0.000426581 -7.31664e-007 -2.715e-007 9.59468e-006 -1.66359e-007 -9.84553 0.764208 -18.7987 -40.5462 -2.91806 -69.0868 1.57687 -17.7754 -8.38275 22.6832 5.94705 7.46504 5.14233e-007 -4.13181e-007 -2.31769e-006 1.67781e-007 -6.82717e-007 -4.76126e-007 1.67781e-007 -6.82717e-007 -4.76126e-007 5.14233e-007 -4.13181e-007 -2.31769e-006 -0.014567 -8.96867e-005 1.05572e-007 1.67769e-007 -6.82656e-007 -4.76213e-007 5.14233e-007 -4.13181e-007 -2.31769e-006 -0.0187546 -0.00117458 5.89857e-005 1.67761e-007 -6.8264e-007 -4.76239e-007 5.14233e-007 -4.13181e-007 -2.31769e-006 -0.0122333 -0.00323967 0.000672658 1.67754e-007 -6.82669e-007 -4.76203e-007 5.14233e-007 -4.13181e-007 -2.31769e-006 1.67781e-007 -6.82717e-007 -4.76126e-007 1.67781e-007 -6.82717e-007 -4.76126e-007 9.87514 0.638378 19.0193 29.633 2.40594 72.4654 -3.74747 -17.7044 4.44122 -23.417 6.07827 -7.13672 5.67755e-007 -1.72874e-006 -2.72079e-006 1.05491e-006 -3.68348e-007 -3.58516e-006 -4.87152e-007 -1.3604e-006 8.64372e-007 5.67755e-007 -1.72874e-006 -2.72079e-006 0.0149867 -9.36976e-005 1.62601e-006 -4.87115e-007 -1.36028e-006 8.6455e-007 5.67755e-007 -1.72874e-006 -2.72079e-006 0.0189973 -0.00118788 -5.52186e-005 1.90182e-006 5.29865e-009 1.0433e-006 5.67755e-007 -1.72874e-006 -2.72079e-006 0.0122855 -0.00325007 -0.000676945 -4.87089e-007 -1.36031e-006 8.6453e-007 5.67755e-007 -1.72874e-006 -2.72079e-006 1.05491e-006 -3.68348e-007 -3.58516e-006 -4.87152e-007 -1.3604e-006 8.64372e-007 -50.0938 -54.3548 -43.166 -151.172 40.0079 156.111 15.3002 41.8098 -14.272 -3.65986e-006 2.45028e-006 -4.31259e-007 50.0693 -54.4091 43.3028 151.314 39.9933 -156.175 -15.1581 41.4648 14.3504 2.02154e-006 7.71494e-006 3.13579e-006 
0.999261 13.8148 1.34417 0 19.1119 -0 -0.322402 11.5336 -0.241615 -0.613238 23.0684 -0.428858 -0.613239 23.0684 -0.428858 1.54267e-005 -0.000723009 -4.05043e-006 2.61471e-007 9.60232e-006 -1.52275e-007 -9.67438 0.791934 -19.6346 -41.2322 -3.79132 -68.1433 1.62321 -17.9985 -8.11318 22.9128 5.68423 6.9738 -1.27222e-014 -3.18055e-015 -0 -1.62554e-007 6.85608e-007 4.74555e-007 -1.59028e-015 0 3.18055e-015 -1.27222e-014 -3.18055e-015 -0 -0.0146101 -8.94898e-005 -9.41703e-007 1.59028e-015 -9.54166e-015 7.95139e-015 -1.27222e-014 -3.18055e-015 -0 -0.0187519 -0.00117627 6.0393e-005 -2.38542e-015 -3.18055e-015 -1.59028e-015 -1.27222e-014 -3.18055e-015 -0 -0.012302 -0.00326003 0.000680474 -3.18055e-015 3.18055e-015 1.59028e-015 -1.27222e-014 -3.18055e-015 -0 -1.62554e-007 6.85608e-007 4.74555e-007 -1.59028e-015 0 3.18055e-015 9.70664 0.659378 19.8671 29.9028 2.43908 71.6241 -3.78953 -17.9238 4.23717 -23.6852 5.81824 -6.6292 -1.08794e-006 2.62253e-007 -1.78364e-006 -3.60212e-007 9.59183e-007 -5.48256e-006 1.53419e-006 9.84706e-007 -4.45344e-006 -1.08794e-006 2.62253e-007 -1.78364e-006 0.0149618 -8.80672e-005 5.61819e-006 1.53424e-006 9.84124e-007 -4.45357e-006 -1.08794e-006 2.62253e-007 -1.78364e-006 0.0190058 -0.00119261 -5.51206e-005 3.11114e-006 2.08124e-006 -3.53737e-006 -1.08794e-006 2.62253e-007 -1.78364e-006 0.0122362 -0.00323787 -0.000674477 3.11012e-006 2.08118e-006 -3.53739e-006 -1.08794e-006 2.62253e-007 -1.78364e-006 -3.60212e-007 9.59183e-007 -5.48256e-006 1.53419e-006 9.84706e-007 -4.45344e-006 -50.1237 -55.4126 -43.4747 -151.188 39.9958 156.115 16.2695 41.8611 -14.7723 -3.24447e-006 -3.14309e-006 -1.24289e-006 50.1038 -55.4688 43.6221 151.327 39.9815 -156.179 -16.1147 41.498 14.8493 1.58495e-006 -1.17013e-006 3.76442e-006 
0.999309 13.963 1.11515 0 20.0817 -0 -0.319295 11.3127 -0.245479 -0.606321 22.6265 -0.438399 -0.606321 22.6265 -0.438399 -4.32801e-006 1.91004e-005 2.3888e-006 3.86251e-008 -9.59567e-006 1.17893e-007 -9.50294 0.817117 -20.4702 -41.9041 -4.67521 -67.2096 1.67073 -18.2213 -7.84309 23.1399 5.41955 6.48395 -3.19243e-007 -2.57363e-007 1.84983e-006 3.94521e-006 2.98158e-007 -1.18312e-007 -3.19243e-007 -2.57363e-007 1.84983e-006 -3.19243e-007 -2.57363e-007 1.84983e-006 -0.0146272 -8.61419e-005 -2.60273e-006 1.23733e-006 -9.31653e-007 3.5197e-006 -3.19243e-007 -2.57363e-007 1.84983e-006 -0.0187444 -0.0011755 5.89894e-005 -3.19262e-007 -2.57668e-007 1.84979e-006 -3.19243e-007 -2.57363e-007 1.84983e-006 -0.0122379 -0.00323715 0.000674349 -3.19217e-007 -2.57566e-007 1.84982e-006 -3.19243e-007 -2.57363e-007 1.84983e-006 3.94521e-006 2.98158e-007 -1.18312e-007 -3.19243e-007 -2.57363e-007 1.84983e-006 9.53795 0.677829 20.7144 30.1177 2.16553 70.7885 -3.83267 -18.143 4.03271 -23.9508 5.55592 -6.12328 -4.8623e-007 -1.36091e-006 8.66974e-007 -3.95413e-006 -2.46049e-006 -1.07795e-006 -4.8623e-007 -1.36091e-006 8.66974e-007 -4.8623e-007 -1.36091e-006 8.66974e-007 0.0149792 -9.46306e-005 1.17578e-008 -4.86194e-007 -1.3608e-006 8.67152e-007 -4.8623e-007 -1.36091e-006 8.66974e-007 0.0190366 -0.00119543 -6.05337e-005 -4.86175e-007 -1.36077e-006 8.67205e-007 -4.8623e-007 -1.36091e-006 8.66974e-007 0.0122773 -0.00324936 -0.000676865 -4.86168e-007 -1.36083e-006 8.67132e-007 -4.8623e-007 -1.36091e-006 8.66974e-007 -3.95413e-006 -2.46049e-006 -1.07795e-006 -4.8623e-007 -1.36091e-006 8.66974e-007 -50.17 -56.4683 -43.7963 -151.201 39.983 156.12 17.2404 41.9063 -15.2739 -1.96759e-006 1.16878e-006 -2.78408e-006 50.1468 -56.5292 43.948 151.341 39.9701 -156.182 -17.0722 41.5253 15.3491 6.46221e-007 2.77872e-006 1.68798e-006 
